# xmcd
#
# Track frame offsets:
#	150
#	11669
#	24969
#	40947
#	51842
#	67692
#	78169
#	95501
#	108681
#	119112
#	130323
#	143543
#	157966
#	170387
#	188153
#
# Disc length: 2687 seconds
# Revision: 0
# Processed by: cddbd v1.5.2PL0 Copyright (c) Steve Scherf et al.
# Submitted via: dBpowerAMP V12.0
#
DISCID=be0a7d0f
DTITLE=Crystal Gayle - Crystal Gayle
DYEAR=1999
DGENRE=Country
TTITLE0=Don't It Make My Brown Eyes Blue
TTITLE1=Talkin' in Your Sleep
TTITLE2=I'll Get Over You
TTITLE3=Ready for the Times to Get Better
TTITLE4=When I Dream
TTITLE5=Your Old Cold Shoulder
TTITLE6=You Never Miss a Real Good Thing (Till He Says Goodbye)
TTITLE7=Why Have You Left the One You Left for Me
TTITLE8=Wrong Road Again
TTITLE9=Somebody Loves You
TTITLE10=I'll Do It All Over Agin
TTITLE11=River Road
TTITLE12=This Is My Year for Mexico
TTITLE13=One More Time (Karneval)
TTITLE14=Heart Mender
EXTD=
EXTT0=
EXTT1=
EXTT2=
EXTT3=
EXTT4=
EXTT5=
EXTT6=
EXTT7=
EXTT8=
EXTT9=
EXTT10=
EXTT11=
EXTT12=
EXTT13=
EXTT14=
PLAYORDER=
